<?xml version="1.0" encoding="UTF-8"?>
<svg id="Layer_1" data-name="Layer 1" xmlns="http://www.w3.org/2000/svg" viewBox="0 0 1080.97 477.91">
  <defs>
    <style>
      .cls-1 {
        fill: #fff;
      }

      .cls-2 {
        fill: red;
      }
    </style>
  </defs>
  <g>
    <polygon class="cls-1" points="71.1 82.69 71.1 29.37 0 29.37 0 47.15 17.77 47.15 17.77 64.92 0 64.92 0 82.69 17.77 82.69 17.77 100.47 0 100.47 0 118.24 88.87 207.11 177.74 207.11 177.74 189.34 71.1 82.69"/>
    <polygon class="cls-1" points="53.32 349.3 0 349.3 0 420.4 17.77 420.4 17.77 402.62 35.55 402.62 35.55 420.4 53.32 420.4 53.32 402.62 71.1 402.62 71.1 420.4 88.87 420.4 177.74 331.53 177.74 242.66 159.96 242.66 53.32 349.3"/>
    <polygon class="cls-1" points="319.93 367.08 319.93 420.4 391.02 420.4 391.02 402.62 373.25 402.62 373.25 384.85 391.02 384.85 391.02 367.08 373.25 367.08 373.25 349.3 391.02 349.3 391.02 331.53 302.16 242.66 213.29 242.66 213.29 260.43 319.93 367.08"/>
    <g>
      <polygon class="cls-2" points="159.96 100.47 159.96 153.79 177.74 171.56 177.74 118.24 159.96 100.47"/>
      <polygon class="cls-2" points="142.19 82.69 124.42 64.92 124.42 118.24 142.19 136.02 142.19 82.69"/>
      <polygon class="cls-2" points="106.64 47.15 88.87 29.37 88.87 82.69 106.64 100.47 106.64 47.15"/>
      <polygon class="cls-2" points="71.1 260.43 124.42 260.43 142.19 242.66 88.87 242.66 71.1 260.43"/>
      <polygon class="cls-2" points="53.32 278.21 35.55 295.98 88.87 295.98 106.64 278.21 53.32 278.21"/>
      <polygon class="cls-2" points="17.77 313.75 0 331.53 53.32 331.53 71.1 313.75 17.77 313.75"/>
      <polygon class="cls-2" points="231.06 349.3 231.06 295.98 213.29 278.21 213.29 331.53 231.06 349.3"/>
      <polygon class="cls-2" points="248.83 367.08 266.61 384.85 266.61 331.53 248.83 313.75 248.83 367.08"/>
      <polygon class="cls-2" points="284.38 402.62 302.16 420.4 302.16 367.08 284.38 349.3 284.38 402.62"/>
      <polygon class="cls-2" points="319.93 189.34 266.61 189.34 248.83 207.11 302.16 207.11 319.93 189.34"/>
      <polygon class="cls-2" points="337.7 171.56 355.48 153.79 302.16 153.79 284.38 171.56 337.7 171.56"/>
      <polygon class="cls-2" points="373.25 136.02 391.02 118.24 337.7 118.24 319.93 136.02 373.25 136.02"/>
    </g>
    <polygon class="cls-1" points="337.7 100.47 391.02 100.47 391.02 29.37 373.25 29.37 373.25 47.15 355.48 47.15 355.48 29.37 337.7 29.37 337.7 47.15 319.93 47.15 319.93 29.37 302.16 29.37 213.29 118.24 213.29 207.11 231.06 207.11 337.7 100.47"/>
  </g>
  <g>
    <path class="cls-1" d="M500.82,183.92c-10.55,0-19.79-2.34-27.7-7.03-7.92-4.69-14.06-11.26-18.43-19.73-4.37-8.47-6.56-18.36-6.56-29.68v-41.55c0-11.39,2.19-21.31,6.56-29.79,4.37-8.47,10.52-15.05,18.43-19.74,7.91-4.69,17.15-7.03,27.7-7.03,8.75,0,16.75,1.88,24,5.62,7.25,3.75,13.33,8.99,18.23,15.73,4.89,6.74,8.21,14.62,9.95,23.64h-21.77c-1.32-4.86-3.52-9.11-6.61-12.76-3.09-3.65-6.72-6.47-10.88-8.49-4.17-2.01-8.47-3.02-12.91-3.02-9.3,0-16.79,3.28-22.44,9.84-5.66,6.56-8.49,15.22-8.49,25.98v41.55c0,10.76,2.83,19.41,8.49,25.93,5.66,6.53,13.14,9.79,22.44,9.79,6.6,0,12.81-2.08,18.64-6.25,5.83-4.17,9.75-10.17,11.77-18.02h21.77c-1.74,9.03-5.07,16.91-10,23.64-4.93,6.74-11,11.98-18.22,15.73-7.22,3.75-15.21,5.62-23.95,5.62Z"/>
    <path class="cls-1" d="M578.99,182.36V30.93h21.25V182.36h-21.25Zm10.62,0v-20.2h86.65v20.2h-86.65Z"/>
    <path class="cls-1" d="M745.04,183.92c-10.69,0-20.03-2.31-28.01-6.93-7.98-4.62-14.18-11.12-18.59-19.53-4.41-8.4-6.61-18.19-6.61-29.37v-42.91c0-11.25,2.2-21.05,6.61-29.42,4.41-8.37,10.61-14.86,18.59-19.48,7.98-4.62,17.32-6.93,28.01-6.93s20.03,2.31,28.01,6.93c7.98,4.62,14.18,11.11,18.59,19.48,4.41,8.37,6.61,18.17,6.61,29.42v42.91c0,11.18-2.21,20.97-6.61,29.37-4.41,8.4-10.61,14.91-18.59,19.53-7.98,4.62-17.32,6.93-28.01,6.93Zm0-20.93c9.51,0,17.13-3.12,22.86-9.37,5.73-6.25,8.59-14.51,8.59-24.79v-44.37c0-10.34-2.86-18.62-8.59-24.84-5.73-6.21-13.35-9.32-22.86-9.32s-17.04,3.11-22.81,9.32c-5.76,6.21-8.64,14.49-8.64,24.84v44.37c0,10.28,2.88,18.54,8.64,24.79,5.76,6.25,13.37,9.37,22.81,9.37Z"/>
    <path class="cls-1" d="M877.36,183.92c-16.87,0-29.94-4.91-39.21-14.74-9.27-9.82-13.9-23.69-13.9-41.61V30.93h21.25v97.37c0,11.04,2.78,19.58,8.33,25.62,5.55,6.04,13.4,9.06,23.54,9.06s18.1-3.02,23.69-9.06c5.59-6.04,8.38-14.58,8.38-25.62V30.93h21.25V127.58c0,17.91-4.65,31.78-13.96,41.61-9.3,9.83-22.43,14.74-39.37,14.74Z"/>
    <path class="cls-1" d="M961.88,182.36V30.93h21.25V182.36h-21.25Zm14.37,0v-20.2h34.26c11.18,0,19.84-2.9,25.98-8.7,6.14-5.8,9.22-13.97,9.22-24.53v-44.57c0-10.55-3.07-18.73-9.22-24.53-6.14-5.8-14.81-8.7-25.98-8.7h-34.26V30.93h33.64c18.33,0,32.51,4.74,42.54,14.22,10.03,9.48,15.05,22.83,15.05,40.04v42.91c0,11.46-2.26,21.23-6.77,29.32-4.51,8.09-11.08,14.27-19.68,18.54-8.61,4.27-19.02,6.4-31.24,6.4h-33.53Z"/>
  </g>
  <g>
    <path class="cls-2" d="M500.82,421.78c-10.55,0-19.79-2.34-27.7-7.03-7.92-4.69-14.06-11.26-18.43-19.74-4.37-8.47-6.56-18.36-6.56-29.68v-41.55c0-11.39,2.19-21.31,6.56-29.78s10.52-15.05,18.43-19.74c7.91-4.69,17.15-7.03,27.7-7.03,8.75,0,16.75,1.88,24,5.62,7.25,3.75,13.33,8.99,18.23,15.73,4.89,6.74,8.21,14.62,9.95,23.64h-21.77c-1.32-4.86-3.52-9.11-6.61-12.76-3.09-3.64-6.72-6.47-10.88-8.49-4.17-2.01-8.47-3.02-12.91-3.02-9.3,0-16.79,3.28-22.44,9.84-5.66,6.56-8.49,15.22-8.49,25.98v41.55c0,10.76,2.83,19.41,8.49,25.93,5.66,6.53,13.14,9.79,22.44,9.79,6.6,0,12.81-2.08,18.64-6.25s9.75-10.17,11.77-18.02h21.77c-1.74,9.03-5.07,16.91-10,23.64-4.93,6.74-11,11.98-18.22,15.73-7.22,3.75-15.21,5.62-23.95,5.62Z"/>
    <path class="cls-2" d="M631.26,421.78c-10.69,0-20.03-2.31-28.01-6.93-7.98-4.62-14.18-11.13-18.59-19.53-4.41-8.4-6.61-18.19-6.61-29.37v-42.91c0-11.25,2.2-21.05,6.61-29.42,4.41-8.37,10.61-14.86,18.59-19.47,7.98-4.62,17.32-6.93,28.01-6.93s20.03,2.31,28.01,6.93c7.98,4.62,14.18,11.11,18.59,19.47,4.41,8.37,6.61,18.17,6.61,29.42v42.91c0,11.18-2.21,20.97-6.61,29.37-4.41,8.4-10.61,14.91-18.59,19.53-7.98,4.62-17.32,6.93-28.01,6.93Zm0-20.93c9.51,0,17.13-3.12,22.86-9.37,5.73-6.25,8.59-14.51,8.59-24.79v-44.37c0-10.34-2.86-18.62-8.59-24.84-5.73-6.21-13.35-9.32-22.86-9.32s-17.04,3.11-22.81,9.32c-5.76,6.21-8.64,14.49-8.64,24.84v44.37c0,10.28,2.88,18.54,8.64,24.79,5.76,6.25,13.37,9.37,22.81,9.37Z"/>
    <path class="cls-2" d="M718.9,420.21v-151.53h21.25v151.53h-21.25Zm9.27-64.05v-20.2h51.66c6.18,0,11.14-2.15,14.89-6.46,3.75-4.3,5.62-10,5.62-17.08s-1.88-12.77-5.62-17.08c-3.75-4.3-8.71-6.46-14.89-6.46h-51.66v-20.2h50.82c8.82,0,16.52,1.82,23.12,5.47,6.59,3.65,11.72,8.73,15.36,15.26,3.65,6.53,5.47,14.2,5.47,23.02s-1.84,16.4-5.52,22.96c-3.68,6.56-8.8,11.66-15.36,15.31-6.56,3.64-14.25,5.47-23.07,5.47h-50.82Zm75.92,64.05l-34.68-68.73,21.14-4.79,38.74,73.53h-25.2Z"/>
    <path class="cls-2" d="M860.06,420.21v-151.42h21.25v151.42h-21.25Zm10.31-131.22v-20.2h86.96v20.2h-86.96Zm0,66.13v-20.2h75.5v20.2h-75.5Zm0,65.09v-20.2h86.96v20.2h-86.96Z"/>
  </g>
</svg>