<?xml version="1.0" encoding="UTF-8"?>
<svg id="Layer_1" data-name="Layer 1" xmlns="http://www.w3.org/2000/svg" viewBox="0 0 569.76 569.76">
  <defs>
    <style>
      .cls-1 {
        fill: #fff;
      }

      .cls-2 {
        fill: red;
      }
    </style>
  </defs>
  <polygon class="cls-1" points="103.59 77.69 103.59 0 0 0 0 25.9 25.9 25.9 25.9 51.8 0 51.8 0 77.69 25.9 77.69 25.9 103.59 0 103.59 0 129.49 129.49 258.98 258.98 258.98 258.98 233.08 103.59 77.69"/>
  <polygon class="cls-1" points="77.69 466.16 0 466.16 0 569.76 25.9 569.76 25.9 543.86 51.8 543.86 51.8 569.76 77.69 569.76 77.69 543.86 103.59 543.86 103.59 569.76 129.49 569.76 258.98 440.27 258.98 310.78 233.08 310.78 77.69 466.16"/>
  <polygon class="cls-1" points="466.16 492.06 466.16 569.76 569.76 569.76 569.76 543.86 543.86 543.86 543.86 517.96 569.76 517.96 569.76 492.06 543.86 492.06 543.86 466.16 569.76 466.16 569.76 440.27 440.27 310.78 310.78 310.78 310.78 336.67 466.16 492.06"/>
  <g>
    <polygon class="cls-2" points="233.08 103.59 233.08 181.29 258.98 207.18 258.98 129.49 233.08 103.59"/>
    <polygon class="cls-2" points="207.18 77.69 181.29 51.8 181.29 129.49 207.18 155.39 207.18 77.69"/>
    <polygon class="cls-2" points="155.39 25.9 129.49 0 129.49 77.69 155.39 103.59 155.39 25.9"/>
    <polygon class="cls-2" points="103.59 336.67 181.29 336.67 207.18 310.78 129.49 310.78 103.59 336.67"/>
    <polygon class="cls-2" points="77.69 362.57 51.8 388.47 129.49 388.47 155.39 362.57 77.69 362.57"/>
    <polygon class="cls-2" points="25.9 414.37 0 440.27 77.69 440.27 103.59 414.37 25.9 414.37"/>
    <polygon class="cls-2" points="336.67 466.16 336.67 388.47 310.78 362.57 310.78 440.27 336.67 466.16"/>
    <polygon class="cls-2" points="362.57 492.06 388.47 517.96 388.47 440.27 362.57 414.37 362.57 492.06"/>
    <polygon class="cls-2" points="414.37 543.86 440.27 569.76 440.27 492.06 414.37 466.16 414.37 543.86"/>
    <polygon class="cls-2" points="466.16 233.08 388.47 233.08 362.57 258.98 440.27 258.98 466.16 233.08"/>
    <polygon class="cls-2" points="492.06 207.18 517.96 181.29 440.27 181.29 414.37 207.18 492.06 207.18"/>
    <polygon class="cls-2" points="543.86 155.39 569.76 129.49 492.06 129.49 466.16 155.39 543.86 155.39"/>
  </g>
  <polygon class="cls-1" points="492.06 103.59 569.76 103.59 569.76 0 543.86 0 543.86 25.9 517.96 25.9 517.96 0 492.06 0 492.06 25.9 466.16 25.9 466.16 0 440.27 0 310.78 129.49 310.78 258.98 336.67 258.98 492.06 103.59"/>
</svg>