<?xml version="1.0" encoding="UTF-8"?>
<svg id="Layer_1" data-name="Layer 1" xmlns="http://www.w3.org/2000/svg" viewBox="0 0 768 768">
  <defs>
    <style>
      .cls-1 {
        fill: #e1e1e1;
      }

      .cls-2 {
        fill: #ebebeb;
      }
    </style>
  </defs>
  <rect class="cls-2" width="768" height="768"/>
  <g>
    <polygon class="cls-1" points="139.64 104.73 139.64 0 0 0 0 34.91 34.91 34.91 34.91 69.82 0 69.82 0 104.73 34.91 104.73 34.91 139.64 0 139.64 0 174.55 174.55 349.09 349.09 349.09 349.09 314.18 139.64 104.73"/>
    <polygon class="cls-1" points="104.73 628.36 0 628.36 0 768 34.91 768 34.91 733.09 69.82 733.09 69.82 768 104.73 768 104.73 733.09 139.64 733.09 139.64 768 174.55 768 349.09 593.45 349.09 418.91 314.18 418.91 104.73 628.36"/>
    <polygon class="cls-1" points="628.36 663.27 628.36 768 768 768 768 733.09 733.09 733.09 733.09 698.18 768 698.18 768 663.27 733.09 663.27 733.09 628.36 768 628.36 768 593.45 593.45 418.91 418.91 418.91 418.91 453.82 628.36 663.27"/>
    <g>
      <polygon class="cls-1" points="314.18 139.64 314.18 244.36 349.09 279.27 349.09 174.55 314.18 139.64"/>
      <polygon class="cls-1" points="279.27 104.73 244.36 69.82 244.36 174.55 279.27 209.45 279.27 104.73"/>
      <polygon class="cls-1" points="209.45 34.91 174.55 0 174.55 104.73 209.45 139.64 209.45 34.91"/>
      <polygon class="cls-1" points="139.64 453.82 244.36 453.82 279.27 418.91 174.55 418.91 139.64 453.82"/>
      <polygon class="cls-1" points="104.73 488.73 69.82 523.64 174.55 523.64 209.45 488.73 104.73 488.73"/>
      <polygon class="cls-1" points="34.91 558.55 0 593.45 104.73 593.45 139.64 558.55 34.91 558.55"/>
      <polygon class="cls-1" points="453.82 628.36 453.82 523.64 418.91 488.73 418.91 593.45 453.82 628.36"/>
      <polygon class="cls-1" points="488.73 663.27 523.64 698.18 523.64 593.45 488.73 558.55 488.73 663.27"/>
      <polygon class="cls-1" points="558.55 733.09 593.45 768 593.45 663.27 558.55 628.36 558.55 733.09"/>
      <polygon class="cls-1" points="628.36 314.18 523.64 314.18 488.73 349.09 593.45 349.09 628.36 314.18"/>
      <polygon class="cls-1" points="663.27 279.27 698.18 244.36 593.45 244.36 558.55 279.27 663.27 279.27"/>
      <polygon class="cls-1" points="733.09 209.45 768 174.55 663.27 174.55 628.36 209.45 733.09 209.45"/>
    </g>
    <polygon class="cls-1" points="663.27 139.64 768 139.64 768 0 733.09 0 733.09 34.91 698.18 34.91 698.18 0 663.27 0 663.27 34.91 628.36 34.91 628.36 0 593.45 0 418.91 174.55 418.91 349.09 453.82 349.09 663.27 139.64"/>
  </g>
</svg>